# xmcd
#
# Track frame offsets:
#	150
#	19731
#	32680
#	42880
#	56892
#	70271
#	84034
#	96190
#	107372
#	119728
#	134588
#	147451
#	160526
#	177246
#	190190
#	202974
#
# Disc length: 2924 seconds
#
# Revision: 0
# Processed by: cddbd v1.5.2PL0 Copyright (c) Steve Scherf et al.
# Submitted via: EZCDAudioConverter 1.5.4.1
#
DISCID=d90b6a10
DTITLE=Kinderchor Mindelheim - Fahrten- und Wanderlieder
DYEAR=1900
DGENRE=Volksmusik
TTITLE0=Das Wandern ist des Müllers Lust
TTITLE1=Jetzt kommen die lustigen Tage
TTITLE2=Mich brennts in meinen Reiseschuh'n
TTITLE3=Was noch frisch und jung an Jahren
TTITLE4=Wohlauf in Gottes schöne Welt
TTITLE5=Muss i denn zum Städtele hinaus
TTITLE6=Heut' noch sind wir hier zu Haus'
TTITLE7=Wem Gott will rechte Gunst erweisen
TTITLE8=Wohlan an die Zeit ist kommen
TTITLE9=Nun Ade du mein lieb' Heimatland
TTITLE10=Über unendliche Wege
TTITLE11=Fort mit den Grillen
TTITLE12=Wohlauf noch getrunken
TTITLE13=Horch was kommt von draußen rein
TTITLE14=Wir sind durch Deutschland gefahren
TTITLE15=Ade zur guten Nacht
EXTD=
EXTT0=
EXTT1=
EXTT2=
EXTT3=
EXTT4=
EXTT5=
EXTT6=
EXTT7=
EXTT8=
EXTT9=
EXTT10=
EXTT11=
EXTT12=
EXTT13=
EXTT14=
EXTT15=
PLAYORDER=
